#!OML:ASF H:\MichaelJackson\Top Level 1\Subject 1\Session 1\male.ASF
:FULLY-SPECIFIED
:DEGREES
476
root 3.65561 16.3239 -7.15425 5.02022 60.0249 -6.22005
lowerback 2.21551 0.0105694 1.30188
upperback -0.331541 0.0745935 1.23366
thorax -1.58167 0.0332666 0.531575
lowerneck -8.44102 -6.91915 0.41826
upperneck 3.4161 -9.35921 1.49134
head 2.59599 -4.59594 -0.0463686
rclavicle 5.12336e-015 5.98839e-015
rhumerus -55.1099 2.476 -83.6962
rradius 62.5176
rwrist 14.884
rhand -29.1643 -26.3799
rfingers 7.12502
rthumb -2.51037 -776.345
lclavicle 5.12336e-015 5.98839e-015
lhumerus -48.8032 -27.2551 108.144
lradius 56.2211
lwrist 5.11857
lhand -9.17207 -6.05326
lfingers 7.12502
lthumb 16.7808 23.2416
rfemur -21.8458 2.65178 9.32126
rtibia 71.4299
rfoot 25.2324 16.4148
rtoes -26.1474
lfemur -39.0274 -2.42409 -22.1363
ltibia 49.2612
lfoot -20.2096 0.893388
ltoes 16.7763
477
root 3.7284 16.341 -7.10752 5.36091 61.1355 -5.63991
lowerback 2.28222 -0.026124 1.04304
upperback -0.333723 0.0168387 1.11333
thorax -1.62127 0.00565704 0.555395
lowerneck -8.43167 -7.03543 0.323417
upperneck 3.57953 -9.51322 1.57741
head 2.66017 -4.66884 -0.0154352
rclavicle 2.13383e-014 -2.40529e-014
rhumerus -54.6057 3.09377 -84.35
rradius 62.5467
rwrist 15.5381
rhand -28.8569 -25.9167
rfingers 7.12502
rthumb -2.2135 -775.885
lclavicle 2.13383e-014 -2.40529e-014
lhumerus -48.931 -27.5431 108.407
lradius 56.3398
lwrist 5.15338
lhand -8.22792 -5.51879
lfingers 7.12502
lthumb 17.6895 23.6965
rfemur -24.0532 2.3438 9.13449
rtibia 73.482
rfoot 24.3727 16.5457
rtoes -25.5466
lfemur -38.3036 -3.32641 -22.4422
ltibia 48.7943
lfoot -20.3052 0.66072
ltoes 16.8988
478
root 3.80092 16.358 -7.06017 5.68636 62.2613 -5.10545
lowerback 2.33705 -0.0704847 0.833656
upperback -0.342441 -0.050028 0.998029
thorax -1.66067 -0.0267865 0.557125
lowerneck -8.43426 -7.14776 0.23255
upperneck 3.76263 -9.66213 1.6458
head 2.73251 -4.73942 0.00841768
rclavicle -2.53528e-014 -1.47598e-014
rhumerus -54.0787 3.73807 -85.0386
rradius 62.6365
rwrist 16.1997
rhand -28.4638 -25.5494
rfingers 7.12502
rthumb -1.83385 -775.521
lclavicle -2.53528e-014 -1.47598e-014
lhumerus -49.0521 -27.8358 108.686
lradius 56.4288
lwrist 5.20472
lhand -7.22322 -4.94135
lfingers 7.12502
lthumb 18.6561 24.184
rfemur -26.2897 1.95226 9.04368
rtibia 75.3858
rfoot 23.5621 16.1026
rtoes -25.1279
lfemur -37.604 -4.16389 -22.7151
ltibia 48.3338
lfoot -20.4115 0.345926
ltoes 17.0339
479
root 3.87311 16.3747 -7.01219 5.97572 63.4055 -4.62605
lowerback 2.38873 -0.121459 0.672565
upperback -0.351316 -0.124365 0.891296
thorax -1.69833 -0.0632329 0.540974
lowerneck -8.44577 -7.25769 0.141955
upperneck 3.95157 -9.80734 1.69956
head 2.8081 -4.8085 0.0271361
rclavicle 6.32461e-014 -1.2424e-016
rhumerus -53.5367 4.41619 -85.7569
rradius 62.8056
rwrist 16.8657
rhand -27.9667 -25.2711
rfingers 7.12502
rthumb -1.35371 -775.247
lclavicle 6.32461e-014 -1.2424e-016
lhumerus -49.1573 -28.1364 108.98
lradius 56.4895
lwrist 5.26372
lhand -6.15198 -4.32422
lfingers 7.12502
lthumb 19.6862 24.699
rfemur -28.5321 1.50584 9.05793
rtibia 77.1332
rfoot 22.7816 15.1053
rtoes -24.671
lfemur -36.9189 -4.96136 -22.9461
ltibia 47.885
lfoot -20.5273 -0.0305882
ltoes 17.1964
480
root 3.94482 16.3908 -6.96351 6.2198 64.5684 -4.20002
lowerback 2.44486 -0.177308 0.550699
upperback -0.355227 -0.203949 0.795306
thorax -1.73336 -0.102511 0.514176
lowerneck -8.46232 -7.36623 0.0485883
upperneck 4.13463 -9.94967 1.74218
head 2.88258 -4.87663 0.0427178
rclavicle -1.79108e-014 -2.45748e-014
rhumerus -52.9862 5.13629 -86.4997
rradius 63.068
rwrist 17.5349
rhand -27.3546 -25.0589
rfingers 7.12502
rthumb -0.762553 -775.037
lclavicle -1.79108e-014 -2.45748e-014
lhumerus -49.2377 -28.445 109.284
lradius 56.5201
lwrist 5.30947
lhand -5.02405 -3.68384
lfingers 7.12502
lthumb 20.7703 25.2245
rfemur -30.761 1.03652 9.17462
rtibia 78.7158
rfoot 22.015 13.6082
rtoes -23.9703
lfemur -36.2411 -5.74043 -23.1335
ltibia 47.453
lfoot -20.6505 -0.447947
ltoes 17.3967
481
root 4.01594 16.4059 -6.91395 6.42394 65.7477 -3.81247
lowerback 2.51103 -0.23548 0.452055
upperback -0.350846 -0.285786 0.710696
thorax -1.76552 -0.142998 0.48627
lowerneck -8.48002 -7.4745 -0.0501023
upperneck 4.30385 -10.0903 1.77756
head 2.95284 -4.94445 0.0571099
rclavicle -1.58003e-014 9.74045e-015
rhumerus -52.4331 5.90746 -87.2613
rradius 63.433
rwrist 18.2047
rhand -26.6253 -24.8811
rfingers 7.12502
rthumb -0.0581423 -774.861
lclavicle -1.58003e-014 9.74045e-015
lhumerus -49.2871 -28.7601 109.598
lradius 56.5177
lwrist 5.31669
lhand -3.86313 -3.04602
lfingers 7.12502
lthumb 21.8854 25.7362
rfemur -32.9589 0.579337 9.3781
rtibia 80.1245
rfoot 21.2442 11.698
rtoes -22.8736
lfemur -35.5655 -6.51815 -23.2832
ltibia 47.0428
lfoot -20.7791 -0.886843
ltoes 17.6395
482
root 4.08644 16.4199 -6.86333 6.6041 66.9394 -3.44019
lowerback 2.59202 -0.293023 0.359246
upperback -0.33724 -0.366474 0.636064
thorax -1.79649 -0.182857 0.465469
lowerneck -8.49553 -7.58353 -0.154088
upperneck 4.45651 -10.2306 1.80838
head 3.01743 -5.01264 0.0713024
rclavicle -3.26566e-014 1.61513e-014
rhumerus -51.8833 6.74003 -88.0389
rradius 63.9058
rwrist 18.8688
rhand -25.7889 -24.7045
rfingers 7.12502
rthumb 0.749617 -774.683
lclavicle -3.26566e-014 1.61513e-014
lhumerus -49.3041 -29.0779 109.917
lradius 56.4804
lwrist 5.26341
lhand -2.69971 -2.4404
lfingers 7.12502
lthumb 23.0021 26.2071
rfemur -35.1124 0.167594 9.64401
rtibia 81.3498
rfoot 20.4413 9.50739
rtoes -21.3251
lfemur -34.889 -7.30522 -23.4055
ltibia 46.6582
lfoot -20.9107 -1.33126
ltoes 17.9214
483
root 4.15634 16.4325 -6.81142 6.78108 68.1381 -3.05791
lowerback 2.69082 -0.347043 0.255528
upperback -0.314917 -0.442733 0.570249
thorax -1.82833 -0.220298 0.459886
lowerneck -8.50693 -7.69398 -0.262369
upperneck 4.59438 -10.3718 1.83599
head 3.07662 -5.08169 0.0855471
rclavicle -2.817e-014 -2.09469e-014
rhumerus -51.3425 7.64805 -88.8312
rradius 64.4893
rwrist 19.5184
rhand -24.8658 -24.5042
rfingers 7.12502
rthumb 1.64121 -774.478
lclavicle -2.817e-014 -2.09469e-014
lhumerus -49.29 -29.3925 110.242
lradius 56.4081
lwrist 5.13726
lhand -1.56969 -1.89377
lfingers 7.12502
lthumb 24.0861 26.6145
rfemur -37.2104 -0.167401 9.94419
rtibia 82.3815
rfoot 19.578 7.21164
rtoes -19.4096
lfemur -34.2104 -8.10615 -23.5112
ltibia 46.3023
lfoot -21.0428 -1.76887
ltoes 18.2292
484
root 4.22579 16.4437 -6.75809 6.97404 69.3397 -2.6445
lowerback 2.80895 -0.395314 0.129542
upperback -0.285297 -0.512072 0.512318
thorax -1.86323 -0.25397 0.474865
lowerneck -8.51357 -7.80601 -0.373066
upperneck 4.72242 -10.5143 1.86088
head 3.13186 -5.15179 0.0995613
rclavicle 7.92033e-016 -5.54112e-015
rhumerus -50.8159 8.64771 -89.6376
rradius 65.185
rwrist 20.1445
rhand -23.8818 -24.267
rfingers 7.12502
rthumb 2.59155 -774.231
lclavicle 7.92033e-016 -5.54112e-015
lhumerus -49.2505 -29.6974 110.571
lradius 56.3056
lwrist 4.94023
lhand -0.505724 -1.42422
lfingers 7.12502
lthumb 25.1059 26.9452
rfemur -39.2433 -0.398685 10.2498
rtibia 83.2088
rfoot 18.6477 5.00504
rtoes -17.3184
lfemur -33.53 -8.92142 -23.6091
ltibia 45.9779
lfoot -21.1734 -2.19044
ltoes 18.5409
